<?xml version="1.0" encoding="UTF-8"?>
<svg width="90px" height="20px" viewBox="0 0 90 20" version="1.1" xmlns="http://www.w3.org/2000/svg" xmlns:xlink="http://www.w3.org/1999/xlink">
    <!-- Generator: Sketch 52.6 (67491) - http://www.bohemiancoding.com/sketch -->
    <title>Group</title>
    <desc>Created with Sketch.</desc>
    <g id="Page-1" stroke="none" stroke-width="1" fill="none" fill-rule="evenodd">
        <g id="Group" fill="#FFFFFF">
            <polygon id="Fill-1" points="-1.24344979e-14 19.8206593 5.89626374 19.8206593 5.89626374 18.0457143 -1.24344979e-14 18.0457143"></polygon>
            <polygon id="Fill-3" points="-1.24344979e-14 17.5101099 5.89626374 17.5101099 5.89626374 15.7232967 -1.24344979e-14 15.7232967"></polygon>
            <polygon id="Fill-4" points="-1.24344979e-14 15.1876923 5.89626374 15.1876923 5.89626374 13.4008791 -1.24344979e-14 13.4008791"></polygon>
            <polygon id="Fill-5" points="-1.24344979e-14 12.8648352 5.89626374 12.8648352 5.89626374 11.0784615 -1.24344979e-14 11.0784615"></polygon>
            <polygon id="Fill-6" points="-1.24344979e-14 10.5415385 5.89626374 10.5415385 5.89626374 8.75538462 -1.24344979e-14 8.75538462"></polygon>
            <polygon id="Fill-8" points="6.61098901 19.8206593 12.5072527 19.8206593 12.5072527 18.0457143 6.61098901 18.0457143"></polygon>
            <polygon id="Fill-10" points="6.61098901 17.5101099 12.5072527 17.5101099 12.5072527 15.7232967 6.61098901 15.7232967"></polygon>
            <polygon id="Fill-11" points="6.61098901 15.1876923 12.5072527 15.1876923 12.5072527 13.4008791 6.61098901 13.4008791"></polygon>
            <polygon id="Fill-13" points="13.2217582 19.8206593 19.118022 19.8206593 19.118022 18.0457143 13.2217582 18.0457143"></polygon>
            <polygon id="Fill-15" points="13.2217582 17.5101099 19.118022 17.5101099 19.118022 15.7232967 13.2217582 15.7232967"></polygon>
            <polygon id="Fill-16" points="13.2217582 15.1876923 19.118022 15.1876923 19.118022 13.4008791 13.2217582 13.4008791"></polygon>
            <polygon id="Fill-17" points="13.2217582 12.8648352 19.118022 12.8648352 19.118022 11.0784615 13.2217582 11.0784615"></polygon>
            <polygon id="Fill-18" points="13.2217582 10.5415385 19.118022 10.5415385 19.118022 8.75538462 13.2217582 8.75538462"></polygon>
            <polygon id="Fill-19" points="13.2217582 8.21912088 19.118022 8.21912088 19.118022 6.43230769 13.2217582 6.43230769"></polygon>
            <polygon id="Fill-20" points="13.2217582 5.89692308 19.118022 5.89692308 19.118022 4.10989011 13.2217582 4.10989011"></polygon>
            <polygon id="Fill-22" points="19.8327473 19.8206593 25.729011 19.8206593 25.729011 18.0457143 19.8327473 18.0457143"></polygon>
            <polygon id="Fill-24" points="19.8327473 17.5101099 25.729011 17.5101099 25.729011 15.7232967 19.8327473 15.7232967"></polygon>
            <polygon id="Fill-25" points="19.8327473 15.1876923 25.729011 15.1876923 25.729011 13.4008791 19.8327473 13.4008791"></polygon>
            <polygon id="Fill-26" points="19.8327473 12.8648352 25.729011 12.8648352 25.729011 11.0784615 19.8327473 11.0784615"></polygon>
            <polygon id="Fill-27" points="19.8327473 10.5415385 25.729011 10.5415385 25.729011 8.75538462 19.8327473 8.75538462"></polygon>
            <polygon id="Fill-29" points="26.4435165 19.8206593 32.3402198 19.8206593 32.3402198 18.0457143 26.4435165 18.0457143"></polygon>
            <polygon id="Fill-31" points="26.4435165 17.5101099 32.3402198 17.5101099 32.3402198 15.7232967 26.4435165 15.7232967"></polygon>
            <polygon id="Fill-32" points="26.4435165 15.1872527 32.3402198 15.1872527 32.3402198 13.4002198 26.4435165 13.4002198"></polygon>
            <polygon id="Fill-33" points="26.4435165 12.8648352 32.3402198 12.8648352 32.3402198 11.0778022 26.4435165 11.0778022"></polygon>
            <polygon id="Fill-34" points="26.4435165 10.5415385 32.3402198 10.5415385 32.3402198 8.75472527 26.4435165 8.75472527"></polygon>
            <polygon id="Fill-35" points="26.4435165 8.21868132 32.3402198 8.21868132 32.3402198 6.43230769 26.4435165 6.43230769"></polygon>
            <polygon id="Fill-36" points="26.4435165 5.89538462 32.3402198 5.89538462 32.3402198 4.10923077 26.4435165 4.10923077"></polygon>
            <polygon id="Fill-37" points="26.4435165 3.57318681 32.3402198 3.57318681 32.3402198 1.78615385 26.4435165 1.78615385"></polygon>
            <path d="M37.3415385,17.5250549 L38.7263736,17.5250549 C40.7595604,17.5250549 41.0925275,16.4534066 41.0925275,13.047033 L41.0925275,6.23538462 C41.0925275,3.2956044 40.8408791,2.30703297 38.5072527,2.30703297 L37.3415385,2.30703297 L37.3415385,17.5250549 Z M34.6624176,1.42108547e-14 L39.0830769,1.42108547e-14 C43.5331868,1.42108547e-14 43.9531868,1.55714286 43.9531868,7.32615385 L43.9531868,13.2217582 C43.9531868,18.3037363 42.9312088,19.8327473 38.5925275,19.8327473 L34.6624176,19.8327473 L34.6624176,1.42108547e-14 Z" id="Fill-39"></path>
            <polyline id="Fill-40" points="45.0243956 1.42108547e-14 52.5285714 1.42108547e-14 52.5285714 2.35736264 47.7043956 2.35736264 47.7043956 8.57626374 52.170989 8.57626374 52.170989 10.8993407 47.7043956 10.8993407 47.7043956 17.4769231 52.5285714 17.4769231 52.5285714 19.8327473 45.0243956 19.8327473 45.0243956 1.42108547e-14"></polyline>
            <polyline id="Fill-41" points="53.6008791 1.42108547e-14 61.1050549 1.42108547e-14 61.1050549 2.35736264 56.2810989 2.35736264 56.2810989 8.57626374 60.7479121 8.57626374 60.7479121 10.8993407 56.2810989 10.8993407 56.2810989 17.4769231 61.1050549 17.4769231 61.1050549 19.8327473 53.6008791 19.8327473 53.6008791 1.42108547e-14"></polyline>
            <polyline id="Fill-42" points="72.0035165 1.42108547e-14 79.5076923 1.42108547e-14 79.5076923 2.35736264 74.6830769 2.35736264 74.6830769 8.57626374 79.1507692 8.57626374 79.1507692 10.8993407 74.6830769 10.8993407 74.6830769 17.4769231 79.5076923 17.4769231 79.5076923 19.8327473 72.0035165 19.8327473 72.0035165 1.42108547e-14"></polyline>
            <polyline id="Fill-43" points="62.1767033 17.5107692 68.3512088 2.32373626 62.1767033 2.32373626 62.1767033 0.0010989011 70.9312088 0.0010989011 70.9312088 2.32373626 64.8628571 17.5107692 70.9312088 17.5107692 70.9312088 19.8338462 62.1767033 19.8327473 62.1767033 17.5107692"></polyline>
            <path d="M83.26,8.75538462 L84.0912088,8.75538462 C86.2615385,8.75538462 86.5927473,8.48769231 86.5927473,5.52131868 C86.5927473,2.58153846 86.3292308,2.32241758 84.6279121,2.32241758 L83.26,2.32241758 L83.26,8.75538462 Z M80.58,0.0010989011 L84.8679121,0.0010989011 C88.8786813,0.0010989011 89.1595604,1.02307692 89.1595604,5.36307692 C89.1595604,8.02659341 88.9083516,9.32901099 86.6553846,10.0153846 C88.5230769,10.2074725 89.1630769,11.1824176 89.1630769,13.0494505 L89.1630769,17.361978 C89.1630769,18.0771429 89.1681319,19.0083516 89.3356044,19.8327473 L86.6553846,19.8327473 C86.3797802,19.3378022 86.4782418,18.8507692 86.4782418,18.0536264 L86.4782418,13.5769231 C86.4782418,11.7087912 86.1235165,11.2569231 84.3103297,11.2569231 L83.26,11.2569231 L83.26,19.8338462 L80.58,19.8327473 L80.58,0.0010989011 Z" id="Fill-44"></path>
        </g>
    </g>
</svg>