<?xml version="1.0" encoding="UTF-8" standalone="no"?>
<svg width="81px" height="22px" viewBox="0 0 81 22" version="1.1" xmlns="http://www.w3.org/2000/svg" xmlns:xlink="http://www.w3.org/1999/xlink" xmlns:sketch="http://www.bohemiancoding.com/sketch/ns">
    <!-- Generator: Sketch 3.5.1 (25234) - http://www.bohemiancoding.com/sketch -->
    <title>Apple_iTunes</title>
    <desc>Created with Sketch.</desc>
    <defs></defs>
    <g id="Page-1" stroke="none" stroke-width="1" fill="none" fill-rule="evenodd" sketch:type="MSPage">
        <g id="Apple_iTunes" sketch:type="MSLayerGroup" fill="#FFFFFF">
            <path d="M0.394367876,6.86265928 L4.73286917,6.86265928 L4.73286917,21.168144 L0.394367876,21.168144 L0.394367876,6.86265928 Z M4.87556347,2.88376731 C4.87556347,4.11235457 3.96231995,5.10692521 2.53478238,5.10692521 C1.16551166,5.10692521 0.251673575,4.11235457 0.280212435,2.88376731 C0.251673575,1.5966759 1.16551166,0.631357341 2.5639158,0.631357341 C3.96231995,0.631357341 4.84702461,1.5966759 4.87556347,2.88376731 L4.87556347,2.88376731 Z" id="Fill-3" sketch:type="MSShapeGroup"></path>
            <path d="M12.0667617,5.19529086 L6.90122798,5.19529086 L6.90122798,1.45041551 L21.6855466,1.45041551 L21.6855466,5.19529086 L16.4338018,5.19529086 L16.4338018,21.168144 L12.0667617,21.168144 L12.0667617,5.19529086" id="Fill-4" sketch:type="MSShapeGroup"></path>
            <path d="M35.4698161,16.5749584 C35.4698161,18.4470914 35.5268938,19.9688089 35.5833769,21.168144 L31.8162474,21.168144 L31.6164754,19.1491413 L31.5308588,19.1491413 C30.9886205,20.027313 29.6758329,21.4899169 27.1638187,21.4899169 C24.3378769,21.4899169 22.2545402,19.6762881 22.2545402,15.258615 L22.2545402,6.86265928 L26.6215803,6.86265928 L26.6215803,14.5565651 C26.6215803,16.6334626 27.2785687,17.8913019 28.7905337,17.8913019 C29.9897604,17.8913019 30.674693,17.0429917 30.9600816,16.3409418 C31.074237,16.0776731 31.1021813,15.7266482 31.1021813,15.3756233 L31.1021813,6.86265928 L35.4698161,6.86265928 L35.4698161,16.5749584" id="Fill-5" sketch:type="MSShapeGroup"></path>
            <path d="M38.9497733,11.4259834 C38.9497733,9.64160665 38.8932902,8.12049861 38.8362124,6.86265928 L42.603342,6.86265928 L42.803114,8.82254848 L42.8887306,8.82254848 C43.4589132,7.91573407 44.8864508,6.54088643 47.1980984,6.54088643 C50.052579,6.54088643 52.1929935,8.47152355 52.1929935,12.6844321 L52.1929935,21.168144 L47.8550868,21.168144 L47.8550868,13.2402216 C47.8550868,11.3973407 47.2272319,10.138892 45.6575946,10.138892 C44.4583679,10.138892 43.7448964,10.9878116 43.4589132,11.8062604 C43.3453523,12.0993906 43.2882746,12.5089197 43.2882746,12.9184488 L43.2882746,21.168144 L38.9497733,21.168144 L38.9497733,11.4259834" id="Fill-6" sketch:type="MSShapeGroup"></path>
            <path d="M64.122237,12.3913019 C64.122237,11.3089751 63.6656153,9.49534626 61.6673005,9.49534626 C59.8408135,9.49534626 59.0988031,11.1925762 58.9846477,12.3913019 L64.122237,12.3913019 L64.122237,12.3913019 Z M59.0131865,15.4341274 C59.1558808,17.2770083 60.9252902,18.1545706 62.9521438,18.1545706 C64.4361645,18.1545706 65.6342021,17.9498061 66.8048899,17.5695291 L67.3756671,20.5831025 C65.9493187,21.168144 64.2078536,21.4899169 62.3236943,21.4899169 C57.585649,21.4899169 54.8744573,18.6524654 54.8744573,14.1762881 C54.8744573,10.5484211 57.072544,6.54088643 61.9241503,6.54088643 C66.4338847,6.54088643 68.1462163,10.138892 68.1462163,13.6790028 C68.1462163,14.4395568 68.0605997,15.1123546 68.0041166,15.4341274 L59.0131865,15.4341274 L59.0131865,15.4341274 Z" id="Fill-7" sketch:type="MSShapeGroup"></path>
            <path d="M70.7135246,17.2770083 C71.5132073,17.7742936 73.1684611,18.3593352 74.4527098,18.3593352 C75.7654974,18.3593352 76.3077358,17.8913019 76.3077358,17.1606094 C76.3077358,16.4286981 75.8802474,16.0776731 74.2529378,15.5218837 C71.370513,14.527313 70.2574974,12.9184488 70.2854417,11.2504709 C70.2854417,8.55927978 72.5120674,6.54088643 75.9652694,6.54088643 C77.592579,6.54088643 79.0480609,6.92116343 79.9042267,7.3599446 L79.1330829,10.4320222 C78.5058225,10.0803878 77.3065959,9.61235457 76.1079637,9.61235457 C75.0520259,9.61235457 74.4527098,10.0517452 74.4527098,10.7830471 C74.4527098,11.4552355 74.9949482,11.8062604 76.7072798,12.420554 C79.3619883,13.3566205 80.4750039,14.7320776 80.5035427,16.8382271 C80.5035427,19.5001662 78.4487448,21.4899169 74.4527098,21.4899169 C72.6262228,21.4899169 70.9995078,21.0505263 69.9429754,20.4654848 L70.7135246,17.2770083" id="Fill-8" sketch:type="MSShapeGroup"></path>
        </g>
    </g>
</svg>