<?xml version="1.0" encoding="UTF-8" standalone="no"?>
<svg width="79px" height="20px" viewBox="0 0 79 20" version="1.1" xmlns="http://www.w3.org/2000/svg" xmlns:xlink="http://www.w3.org/1999/xlink" xmlns:sketch="http://www.bohemiancoding.com/sketch/ns">
    <!-- Generator: Sketch 3.5.1 (25234) - http://www.bohemiancoding.com/sketch -->
    <title>Group</title>
    <desc>Created with Sketch.</desc>
    <defs></defs>
    <g id="Page-1" stroke="none" stroke-width="1" fill="none" fill-rule="evenodd" sketch:type="MSPage">
        <g id="Group" sketch:type="MSLayerGroup" fill="#FFFFFF">
            <path d="M17.5964789,18.4049296 L16.6685915,15.8826761 C16.6685915,15.8826761 15.1608451,17.5643662 12.8998592,17.5643662 C10.8991549,17.5643662 9.47873239,15.8246479 9.47873239,13.0414085 C9.47873239,9.4756338 11.2760563,8.19985915 13.0447887,8.19985915 C15.5957746,8.19985915 16.4076056,9.85253521 17.1035211,11.9688732 L18.0312676,14.8680282 C18.9588732,17.6801408 20.6983099,19.9414085 25.7138028,19.9414085 C29.3090141,19.9414085 31.7442254,18.8397183 31.7442254,15.9407042 C31.7442254,13.5925352 30.4104225,12.3747887 27.9171831,11.7949296 L26.061831,11.3888732 C24.7861972,11.0990141 24.4094366,10.5771831 24.4094366,9.70760563 C24.4094366,8.72183099 25.1919718,8.14197183 26.4678873,8.14197183 C27.8594366,8.14197183 28.6130986,8.66380282 28.7291549,9.91042254 L31.6283099,9.56253521 C31.396338,6.95338028 29.5990141,5.88070423 26.6416901,5.88070423 C24.0325352,5.88070423 21.4812676,6.86647887 21.4812676,10.026338 C21.4812676,11.9978873 22.4380282,13.2446479 24.8440845,13.8243662 L26.8157746,14.288169 C28.2943662,14.6361972 28.7869014,15.2447887 28.7869014,16.0857746 C28.7869014,17.158169 27.7433803,17.5930986 25.771831,17.5930986 C22.843662,17.5930986 21.6261972,16.0566197 20.9302817,13.9401408 L19.973662,11.0411268 C18.7560563,7.27225352 16.8135211,5.88070423 12.9574648,5.88070423 C8.69591549,5.88070423 6.43450704,8.57676056 6.43450704,13.1574648 C6.43450704,17.5643662 8.69591549,19.9414085 12.7549296,19.9414085 C16.0307042,19.9414085 17.5964789,18.4049296 17.5964789,18.4049296" id="Fill-130" sketch:type="MSShapeGroup"></path>
            <path d="M5.18971831,17.0421127 C4.89985915,17.1292958 4.60985915,17.1871831 4.23295775,17.1871831 C3.5371831,17.1871831 3.04422535,16.8683099 3.04422535,16.0274648 L3.04422535,0.226338028 L2.84217094e-14,0.226338028 L2.84217094e-14,16.7522535 C2.84217094e-14,18.9266197 1.50774648,19.8257746 3.27605634,19.8257746 C3.85605634,19.8257746 4.40704225,19.7384507 5.10267606,19.5649296 L5.18971831,17.0421127" id="Fill-131" sketch:type="MSShapeGroup"></path>
            <path d="M41.8623944,16.5784507 C41.1087324,17.1004225 40.4708451,17.3614085 39.6009859,17.3614085 C38.4992958,17.3614085 37.8904225,16.7815493 37.8904225,15.3608451 L37.8904225,8.57633803 L41.8915493,8.57633803 L41.8915493,6.19901408 L37.9194366,6.19901408 L37.9194366,2.98070423 L34.846338,3.35774648 L34.846338,6.19901408 L32.903662,6.19901408 L32.903662,8.57633803 L34.846338,8.57633803 L34.846338,15.9985915 C34.846338,18.666338 36.3828169,19.9414085 38.8761972,19.9414085 C40.2388732,19.9414085 41.4564789,19.6808451 42.4132394,19.13 L41.8623944,16.5784507" id="Fill-132" sketch:type="MSShapeGroup"></path>
            <path d="M44.5066197,17.6219718 C44.5066197,18.8108451 45.434507,19.7676056 46.6229577,19.7676056 C47.8698592,19.7676056 48.7976056,18.8108451 48.7976056,17.6219718 C48.7976056,16.4043662 47.8698592,15.4769014 46.6229577,15.4769014 C45.434507,15.4769014 44.5066197,16.4043662 44.5066197,17.6219718" id="Fill-133" sketch:type="MSShapeGroup"></path>
            <path d="M51.9491549,8.57633803 L51.9491549,19.593662 L54.9932394,19.593662 L54.9932394,8.57633803 L58.414507,8.57633803 L58.414507,6.19901408 L54.9932394,6.19901408 L54.9932394,4.98126761 C54.9932394,3.15492958 55.7761972,2.57507042 57.051831,2.57507042 C57.9505634,2.57507042 58.5594366,2.77774648 59.2553521,3.15492958 L59.7480282,0.603239437 C58.936338,0.226338028 57.9795775,0.0235211268 56.8198592,0.0235211268 C54.2684507,0.0235211268 51.9491549,1.24112676 51.9491549,4.86521127 L51.9491549,6.19901408 L50.0064789,6.19901408 L50.0064789,8.57633803 L51.9491549,8.57633803" id="Fill-134" sketch:type="MSShapeGroup"></path>
            <path d="M70.5447887,8.83746479 C70.1966197,6.66309859 68.7761972,5.88 66.9207042,5.88 C65.0652113,5.88 63.4707042,6.72098592 62.774507,8.77915493 L62.3977465,6.19901408 L59.9332394,6.19901408 L59.9332394,19.593662 L62.9777465,19.593662 L62.9777465,12.0267606 C62.9777465,9.44605634 64.3112676,8.46042254 65.7319718,8.46042254 C67.2105634,8.46042254 67.8195775,9.44605634 67.8195775,11.0408451 L67.8195775,19.593662 L70.8346479,19.593662 L70.8346479,11.9976056 C70.8346479,9.44605634 72.1974648,8.46042254 73.6180282,8.46042254 C75.0676056,8.46042254 75.676338,9.44605634 75.676338,11.0408451 L75.676338,19.593662 L78.7207042,19.593662 L78.7207042,9.96830986 C78.7207042,7.09802817 77.0391549,5.88 74.8066197,5.88 C72.9222535,5.88 71.2405634,6.72098592 70.5447887,8.83746479" id="Fill-135" sketch:type="MSShapeGroup"></path>
        </g>
    </g>
</svg>