<?xml version="1.0" encoding="UTF-8" standalone="no"?>
<svg width="100px" height="100px" viewBox="0 0 100 100" version="1.1" xmlns="http://www.w3.org/2000/svg" xmlns:xlink="http://www.w3.org/1999/xlink" xmlns:sketch="http://www.bohemiancoding.com/sketch/ns">
    <!-- Generator: Sketch 3.5.1 (25234) - http://www.bohemiancoding.com/sketch -->
    <title>Page 1</title>
    <desc>Created with Sketch.</desc>
    <defs></defs>
    <g id="Page-1" stroke="none" stroke-width="1" fill="none" fill-rule="evenodd" sketch:type="MSPage">
        <g sketch:type="MSLayerGroup" fill="#5BB66F">
            <path d="M50,97.5 C23.766,97.5 2.5,76.234 2.5,50 C2.5,23.766 23.766,2.5 50,2.5 C76.234,2.5 97.5,23.766 97.5,50 C97.5,76.234 76.234,97.5 50,97.5 M50,0 C22.386,0 0,22.386 0,50 C0,77.614 22.386,100 50,100 C77.614,100 100,77.614 100,50 C100,22.386 77.614,0 50,0" id="Fill-1" sketch:type="MSShapeGroup"></path>
            <path d="M68.125,44.8735 C68.646,44.4135 68.907,43.6865 68.907,42.8885 C68.907,42.0915 68.646,41.4215 68.125,40.9765 C67.604,40.5325 67.227,40.2845 66.552,40.2845 L60.333,40.2135 L60.333,45.7615 L66.331,45.7615 C67.005,45.7615 67.604,45.3335 68.125,44.8735" id="Fill-3" sketch:type="MSShapeGroup"></path>
            <path d="M68.5854,52.3354 C67.9714,51.9374 67.3274,51.7614 66.6534,51.7614 L60.3334,51.7614 L60.3334,56.7614 L66.6534,56.7614 C67.3274,56.7614 67.9714,56.7674 68.5854,56.3074 C69.1984,55.8474 69.5054,55.2574 69.5054,54.2754 C69.5054,53.2944 69.1984,52.7344 68.5854,52.3354" id="Fill-5" sketch:type="MSShapeGroup"></path>
            <path d="M35.9253,47.9414 C35.2503,47.7894 34.6373,47.7124 34.0853,47.7124 C32.9503,47.7124 31.9763,48.1624 31.1643,49.0634 C30.3513,49.9634 29.9453,51.2384 29.9453,52.8874 C29.9453,54.5354 30.3513,55.8184 31.1643,56.7344 C31.9763,57.6504 32.9503,58.1084 34.0853,58.1084 C34.6373,58.1084 35.2503,58.0314 35.9253,57.8794 C36.5993,57.7274 37.1213,57.3904 37.4893,56.8714 L37.5353,48.9484 C37.1363,48.4294 36.5993,48.0934 35.9253,47.9414" id="Fill-7" sketch:type="MSShapeGroup"></path>
            <path d="M78.3833,58.8208 C78.0153,59.8178 77.4553,60.7068 76.7043,61.4888 C75.9523,62.2708 75.0093,62.7518 73.8753,63.2118 C72.7403,63.6718 71.4063,63.7608 69.8733,63.7608 L50.3333,63.7608 L50.3333,33.7608 L69.2293,33.7608 C70.8233,33.7608 72.1963,33.7988 73.3463,34.2738 C74.4963,34.7498 75.4393,35.2618 76.1753,36.0128 C76.9113,36.7648 77.4553,37.5578 77.8083,38.4928 C78.1603,39.4288 78.3373,40.3158 78.3373,41.2048 C78.3373,43.1368 77.8383,44.6968 76.8423,45.9078 C75.8453,47.1198 74.5953,47.8868 73.0933,48.2238 C73.9213,48.3468 74.6873,48.6198 75.3933,49.0488 C76.0983,49.4788 76.7193,50.0218 77.2563,50.6808 C77.7923,51.3408 78.2063,52.0988 78.4983,52.9568 C78.7893,53.8158 78.9353,54.7358 78.9353,55.7168 C78.9353,56.7908 78.7513,57.8248 78.3833,58.8208 L78.3833,58.8208 Z M37.4893,63.7608 L37.5353,61.5458 C36.7683,62.6268 35.8633,63.4558 34.8213,63.9038 C33.7793,64.3508 32.5973,64.6078 31.2793,64.6078 C29.9293,64.6078 28.6643,64.3708 27.4843,63.8648 C26.3033,63.3588 25.2683,62.6238 24.3793,61.6418 C23.4893,60.6608 22.7843,59.4378 22.2633,57.9668 C21.7413,56.4938 21.4813,54.8098 21.4813,52.9078 C21.4813,51.0678 21.7343,49.4208 22.2403,47.9638 C22.7463,46.5078 23.4443,45.2808 24.3333,44.2848 C25.2223,43.2878 26.2583,42.5218 27.4383,41.9848 C28.6183,41.4488 29.8993,41.1798 31.2793,41.1798 C32.5973,41.1798 33.7933,41.4098 34.8673,41.8698 C35.9403,42.3298 36.8293,43.2978 37.5353,44.3708 L37.4893,33.7608 L45.7693,33.7608 L45.8153,63.7608 L37.4893,63.7608 Z M50.0003,4.9998 C25.1473,4.9998 5.0003,25.1468 5.0003,49.9998 C5.0003,74.8528 25.1473,94.9998 50.0003,94.9998 C74.8533,94.9998 95.0003,74.8528 95.0003,49.9998 C95.0003,25.1468 74.8533,4.9998 50.0003,4.9998 L50.0003,4.9998 Z" id="Fill-9" sketch:type="MSShapeGroup"></path>
        </g>
    </g>
</svg>