<?xml version="1.0" encoding="UTF-8" standalone="no"?>
<svg width="130px" height="22px" viewBox="0 0 130 22" version="1.1" xmlns="http://www.w3.org/2000/svg" xmlns:xlink="http://www.w3.org/1999/xlink" xmlns:sketch="http://www.bohemiancoding.com/sketch/ns">
    <!-- Generator: Sketch 3.5.1 (25234) - http://www.bohemiancoding.com/sketch -->
    <title>bandcamp</title>
    <desc>Created with Sketch.</desc>
    <defs>
        <path id="path-1" d="M0.011092437,0.0410420168 L129.325983,0.0410420168 L129.325983,21.9889076 L0.011092437,21.9889076"></path>
    </defs>
    <g id="Page-1" stroke="none" stroke-width="1" fill="none" fill-rule="evenodd" sketch:type="MSPage">
        <g id="bandcamp" sketch:type="MSLayerGroup">
            <path d="M33.5695966,6.20270588 C30.5572605,6.20270588 30.2252269,9.45223529 30.2252269,11.4684706 C30.2252269,14.7655126 32.2889748,15.6431092 33.6169244,15.6431092 C35.8940168,15.6431092 36.9616639,13.5793613 36.9616639,10.851916 C36.9616639,9.2627395 36.7954622,6.20270588 33.5695966,6.20270588 L33.5695966,6.20270588 Z M28.2328403,17.0899328 L28.2328403,0.0595294118 L30.3200672,0.0595294118 L30.3200672,6.25021849 L30.3675798,6.25021849 C31.2688403,4.9457479 32.5023193,4.35267227 33.9491429,4.3290084 C37.2461849,4.3290084 39.1200672,7.03297479 39.1200672,10.5196975 C39.1200672,13.484521 37.8865882,17.4456303 33.664437,17.4456303 C31.5535462,17.4456303 30.6759496,16.2361849 30.2488908,15.548084 L30.201563,15.548084 L30.201563,17.0899328 L28.2328403,17.0899328 L28.2328403,17.0899328 Z" id="Fill-1" fill="#FFFFFF" sketch:type="MSShapeGroup"></path>
            <path d="M47.9675798,10.7568908 C47.6355462,11.0177479 47.1136471,11.2074286 44.5283697,11.5396471 C43.5082353,11.682 41.8717311,11.9903697 41.8717311,13.5556975 C41.8717311,14.9076807 42.5594622,15.7142857 44.1249748,15.7142857 C46.0700336,15.7142857 47.9675798,14.4571429 47.9675798,12.7967899 L47.9675798,10.7568908 L47.9675798,10.7568908 Z M40.3298824,8.45613445 C40.4247227,5.49112605 42.3936303,4.3290084 45.4532941,4.3290084 C46.4495798,4.3290084 50.0548067,4.61352941 50.0548067,7.79206723 L50.0548067,14.9313445 C50.0548067,15.4532437 50.3158487,15.6667731 50.7429076,15.6667731 C50.9324034,15.6667731 51.1932605,15.6192605 51.4306387,15.5717479 L51.4306387,17.0899328 C51.0747563,17.1847731 50.7663866,17.3271261 50.2921849,17.3271261 C48.4417815,17.3271261 48.1574454,16.3783529 48.086084,15.4297647 C47.2798487,16.3071765 46.022521,17.4456303 43.6032605,17.4456303 C41.3261681,17.4456303 39.7133277,15.9989916 39.7133277,13.8640672 C39.7133277,12.8202689 40.0215126,10.4011933 43.4845714,9.97413445 L46.9237815,9.54707563 C47.4222017,9.4997479 48.0149076,9.31006723 48.0149076,8.07658824 C48.0149076,6.77193277 47.0661345,6.06035294 45.0975966,6.06035294 C42.7256639,6.06035294 42.3936303,7.50736134 42.2512773,8.45613445 L40.3298824,8.45613445 L40.3298824,8.45613445 Z" id="Fill-2" fill="#FFFFFF" sketch:type="MSShapeGroup"></path>
            <path d="M62.5077311,17.0899328 L60.4203193,17.0899328 L60.4203193,9.45223529 C60.4203193,7.29383193 59.8037647,6.20270588 57.7638655,6.20270588 C56.5778992,6.20270588 54.4904874,6.96179832 54.4904874,10.3300168 L54.4904874,17.0899328 L52.4032605,17.0899328 L52.4032605,4.68489076 L54.3719832,4.68489076 L54.3719832,6.43989916 L54.4193109,6.43989916 C54.8700336,5.77583193 56.0323361,4.3290084 58.1670756,4.3290084 C60.0882857,4.3290084 62.5077311,5.11157983 62.5077311,8.64581513 L62.5077311,17.0899328" id="Fill-3" fill="#FFFFFF" sketch:type="MSShapeGroup"></path>
            <path d="M69.1968403,15.6431092 C70.5249748,15.6431092 72.5885378,14.7655126 72.5885378,11.4684706 C72.5885378,9.45223529 72.2565042,6.20270588 69.2441681,6.20270588 C66.0183025,6.20270588 65.8522857,9.2627395 65.8522857,10.851916 C65.8522857,13.5793613 66.9197479,15.6431092 69.1968403,15.6431092 L69.1968403,15.6431092 Z M74.6996134,17.0899328 L72.7310756,17.0899328 L72.7310756,15.3822521 L72.6833782,15.3822521 C71.7823025,17.0662689 70.3591429,17.4456303 69.1493277,17.4456303 C64.9271765,17.4456303 63.6938824,13.484521 63.6938824,10.5196975 C63.6938824,7.03297479 65.5677647,4.3290084 68.8648067,4.3290084 C71.1178655,4.3290084 72.0668235,5.72831933 72.5648739,6.43989916 L72.6123866,6.43989916 L72.6123866,0.0595294118 L74.6996134,0.0595294118 L74.6996134,17.0899328 L74.6996134,17.0899328 Z" id="Fill-4" fill="#FFFFFF" sketch:type="MSShapeGroup"></path>
            <path d="M85.1126387,8.85934454 C84.8517815,7.1989916 83.9264874,6.20270588 82.1712941,6.20270588 C79.5858319,6.20270588 78.7559328,8.66966387 78.7559328,10.875395 C78.7559328,13.0101345 79.2776471,15.6431092 82.1476303,15.6431092 C83.5471261,15.6431092 84.7569412,14.5994958 85.1126387,12.7017647 L87.1286891,12.7017647 C86.9151597,14.6704874 85.7057143,17.4456303 82.0762689,17.4456303 C78.5897311,17.4456303 76.5261681,14.8128403 76.5261681,11.2312773 C76.5261681,7.38885714 78.3763866,4.3290084 82.4796639,4.3290084 C85.7291933,4.3290084 86.9626723,6.7007563 87.1286891,8.85934454 L85.1126387,8.85934454" id="Fill-5" fill="#FFFFFF" sketch:type="MSShapeGroup"></path>
            <path d="M95.5966555,10.7568908 C95.2646218,11.0177479 94.7429076,11.2074286 92.1574454,11.5396471 C91.1374958,11.682 89.5009916,11.9903697 89.5009916,13.5556975 C89.5009916,14.9076807 90.1885378,15.7142857 91.7542353,15.7142857 C93.6992941,15.7142857 95.5966555,14.4571429 95.5966555,12.7967899 L95.5966555,10.7568908 L95.5966555,10.7568908 Z M87.9593277,8.45613445 C88.0539832,5.49112605 90.0227059,4.3290084 93.0825546,4.3290084 C94.0786555,4.3290084 97.6838824,4.61352941 97.6838824,7.79206723 L97.6838824,14.9313445 C97.6838824,15.4532437 97.9451092,15.6667731 98.3719832,15.6667731 C98.5616639,15.6667731 98.8227059,15.6192605 99.0598992,15.5717479 L99.0598992,17.0899328 C98.7040168,17.1847731 98.3956471,17.3271261 97.9214454,17.3271261 C96.0712269,17.3271261 95.786521,16.3783529 95.7155294,15.4297647 C94.9089244,16.3071765 93.6517815,17.4456303 91.232521,17.4456303 C88.9552437,17.4456303 87.3425882,15.9989916 87.3425882,13.8640672 C87.3425882,12.8202689 87.650958,10.4011933 91.1138319,9.97413445 L94.5532269,9.54707563 C95.0512773,9.4997479 95.6441681,9.31006723 95.6441681,8.07658824 C95.6441681,6.77193277 94.695395,6.06035294 92.7266723,6.06035294 C90.3549244,6.06035294 90.0227059,7.50736134 89.8803529,8.45613445 L87.9593277,8.45613445 L87.9593277,8.45613445 Z" id="Fill-6" fill="#FFFFFF" sketch:type="MSShapeGroup"></path>
            <g id="Group-11">
                <mask id="mask-2" sketch:name="Clip 8" fill="white">
                    <use xlink:href="#path-1"></use>
                </mask>
                <g id="Clip-8"></g>
                <path d="M100.032521,4.68489076 L102.001244,4.68489076 L102.001244,6.43989916 L102.048756,6.43989916 C102.499294,5.77583193 103.566756,4.3290084 105.796336,4.3290084 C108.025916,4.3290084 108.737496,5.68080672 109.093378,6.34505882 C110.137176,5.18294118 110.967261,4.3290084 112.888471,4.3290084 C114.21679,4.3290084 116.731076,5.0167395 116.731076,8.50364706 L116.731076,17.0899328 L114.643849,17.0899328 L114.643849,9.07287395 C114.643849,7.3650084 114.121765,6.20270588 112.342908,6.20270588 C110.587714,6.20270588 109.425412,7.86305882 109.425412,9.52359664 L109.425412,17.0899328 L107.338185,17.0899328 L107.338185,8.50364706 C107.338185,7.45984874 106.93479,6.20270588 105.393311,6.20270588 C104.207345,6.20270588 102.119748,6.96179832 102.119748,10.3300168 L102.119748,17.0899328 L100.032521,17.0899328 L100.032521,4.68489076" id="Fill-7" fill="#FFFFFF" sketch:type="MSShapeGroup" mask="url(#mask-2)"></path>
                <path d="M123.82321,15.6431092 C126.100118,15.6431092 127.167765,13.5793613 127.167765,10.851916 C127.167765,9.2627395 127.001563,6.20270588 123.775697,6.20270588 C120.763361,6.20270588 120.431143,9.45223529 120.431143,11.4684706 C120.431143,14.7655126 122.494891,15.6431092 123.82321,15.6431092 L123.82321,15.6431092 Z M118.438941,4.68489076 L120.407479,4.68489076 L120.407479,6.43989916 L120.454992,6.43989916 C120.953227,5.72831933 121.901815,4.3290084 124.155244,4.3290084 C127.452286,4.3290084 129.326168,7.03297479 129.326168,10.5196975 C129.326168,13.484521 128.092689,17.4456303 123.870538,17.4456303 C122.210185,17.4456303 121.119244,16.6630588 120.573681,15.7854622 L120.526168,15.7854622 L120.526168,22 L118.438941,22 L118.438941,4.68489076 L118.438941,4.68489076 Z" id="Fill-9" fill="#FFFFFF" sketch:type="MSShapeGroup" mask="url(#mask-2)"></path>
                <path d="M20.2588571,17.0899328 L0.00018487395,17.0899328 L7.8802521,0.0410420168 L28.1387395,0.0410420168 L20.2588571,17.0899328" id="Fill-10" fill="#FFFFFF" sketch:type="MSShapeGroup" mask="url(#mask-2)"></path>
            </g>
        </g>
    </g>
</svg>