<?xml version="1.0" encoding="UTF-8" standalone="no"?>
<svg width="81px" height="22px" viewBox="0 0 81 22" version="1.1" xmlns="http://www.w3.org/2000/svg" xmlns:xlink="http://www.w3.org/1999/xlink" xmlns:sketch="http://www.bohemiancoding.com/sketch/ns">
    <!-- Generator: Sketch 3.5.1 (25234) - http://www.bohemiancoding.com/sketch -->
    <title>vevo_logo_red_rgb</title>
    <desc>Created with Sketch.</desc>
    <defs></defs>
    <g id="Page-1" stroke="none" stroke-width="1" fill="none" fill-rule="evenodd" sketch:type="MSPage">
        <g id="vevo_logo_red_rgb" sketch:type="MSLayerGroup" fill="#FFFFFF">
            <path d="M18.634939,0.601333333 C14.953061,0.601333333 14.2515549,2.93995122 13.1544329,4.65004878 C13.1542683,4.65112195 10.1681341,9.55926829 9.0310061,11.4285528 L6.58042683,0.601333333 L0,0.601333333 L4.15009756,18.7350569 C5.00932317,21.9749593 7.45348171,21.7681951 7.45348171,21.7681951 C9.12764634,21.7681951 10.3810061,20.8114634 11.5197805,18.9992358 L22.7142439,0.601333333 L18.634939,0.601333333" id="Fill-1" sketch:type="MSShapeGroup"></path>
            <g id="Group-6" transform="translate(19.591463, 0.000000)" sketch:type="MSShapeGroup">
                <path d="M39.718811,0.601333333 C36.0369329,0.601333333 35.3354268,2.93995122 34.2384695,4.65004878 C34.2381402,4.65112195 31.2521707,9.55926829 30.1147134,11.4285528 L27.6642988,0.601333333 L21.083872,0.601333333 L25.2339695,18.7350569 C26.0933598,21.9749593 28.537189,21.7681951 28.537189,21.7681951 C30.2115183,21.7681951 31.464878,20.8114634 32.6036524,18.9992358 L43.7982805,0.601333333 L39.718811,0.601333333" id="Fill-2"></path>
                <path d="M54.7395366,10.1809919 C54.811811,8.00245528 53.541,6.60912195 51.6007866,6.60876423 C49.0025305,6.60858537 47.142,9.42995122 47.0590244,11.9300813 C46.9859268,14.144748 48.2559146,15.5373659 50.1959634,15.5377236 C52.7952073,15.5386179 54.6554085,12.7168943 54.7395366,10.1809919 L54.7395366,10.1809919 Z M40.4529146,12.2690244 C40.6537683,5.97595122 45.722689,0.14595122 52.1735488,0.146666667 C58.0903354,0.147560976 61.5199939,4.35671545 61.3454817,9.83954472 C61.1434756,16.1714309 56.0747195,22.0008943 49.5879695,22 C43.7070732,21.9991057 40.2774146,17.7903089 40.4529146,12.2690244 L40.4529146,12.2690244 Z" id="Fill-4"></path>
                <path d="M11.274311,6.03300813 C12.80475,6.03300813 13.9481341,6.8616748 14.4342988,8.25035772 C14.5050915,8.54154472 14.3335427,8.67336585 14.0386829,8.67372358 L7.31057927,8.67336585 C8.18692683,7.16323577 9.58746951,6.03300813 11.274311,6.03300813 L11.274311,6.03300813 Z M9.74370732,16.1036423 C7.90408537,16.1036423 6.61829268,14.9117073 6.36920122,12.9560325 L18.6645732,12.9576423 C19.6373963,12.9574634 20.5453537,12.8072195 20.7499939,11.7107967 C20.8647439,11.0940813 20.9357012,10.4666341 20.9559512,9.834 C21.1302988,4.35152846 17.700311,0.142552846 11.7838537,0.141658537 C5.33282927,0.140585366 0.263908537,5.9704065 0.0637134146,12.2638374 C-0.112445122,17.7853008 3.31754268,21.9939187 9.19843902,21.9946341 C13.8617012,21.9955285 17.7920122,18.9822439 19.7083537,14.9363902 L12.5380427,14.9354959 C11.7608049,15.6513008 10.8097134,16.1036423 9.74370732,16.1036423 L9.74370732,16.1036423 Z" id="Fill-5"></path>
            </g>
        </g>
    </g>
</svg>